<svg width="100" height="100" viewBox="0 0 100 100" fill="none" xmlns="http://www.w3.org/2000/svg">
<path d="M18.75 87.5C18.75 87.5 12.5 87.5 12.5 81.25C12.5 75 18.75 56.25 50 56.25C81.25 56.25 87.5 75 87.5 81.25C87.5 87.5 81.25 87.5 81.25 87.5H18.75ZM50 50C54.9728 50 59.7419 48.0246 63.2583 44.5083C66.7746 40.9919 68.75 36.2228 68.75 31.25C68.75 26.2772 66.7746 21.5081 63.2583 17.9917C59.7419 14.4754 54.9728 12.5 50 12.5C45.0272 12.5 40.2581 14.4754 36.7417 17.9917C33.2254 21.5081 31.25 26.2772 31.25 31.25C31.25 36.2228 33.2254 40.9919 36.7417 44.5083C40.2581 48.0246 45.0272 50 50 50Z" fill="white"/>
<g clip-path="url(#clip0_101_7)">
<path d="M50.5 82.4375C47.5992 82.4375 44.8172 81.2852 42.766 79.234C40.7148 77.1828 39.5625 74.4008 39.5625 71.5C39.5625 68.5992 40.7148 65.8172 42.766 63.766C44.8172 61.7148 47.5992 60.5625 50.5 60.5625C53.4008 60.5625 56.1828 61.7148 58.234 63.766C60.2852 65.8172 61.4375 68.5992 61.4375 71.5C61.4375 74.4008 60.2852 77.1828 58.234 79.234C56.1828 81.2852 53.4008 82.4375 50.5 82.4375ZM50.5 84C53.8152 84 56.9946 82.683 59.3388 80.3388C61.683 77.9946 63 74.8152 63 71.5C63 68.1848 61.683 65.0054 59.3388 62.6612C56.9946 60.317 53.8152 59 50.5 59C47.1848 59 44.0054 60.317 41.6612 62.6612C39.317 65.0054 38 68.1848 38 71.5C38 74.8152 39.317 77.9946 41.6612 80.3388C44.0054 82.683 47.1848 84 50.5 84Z" fill="#0A192F"/>
<path d="M51.9531 69.2937L48.3749 69.7422L48.2468 70.3359L48.9499 70.4656C49.4093 70.575 49.4999 70.7406 49.3999 71.1984L48.2468 76.6172C47.9437 78.0187 48.4109 78.6781 49.5093 78.6781C50.3609 78.6781 51.3499 78.2844 51.7984 77.7438L51.9359 77.0937C51.6234 77.3687 51.1671 77.4781 50.864 77.4781C50.4343 77.4781 50.2781 77.1766 50.389 76.6453L51.9531 69.2937ZM52.0624 66.0312C52.0624 66.4457 51.8978 66.8431 51.6048 67.1361C51.3118 67.4291 50.9143 67.5938 50.4999 67.5938C50.0855 67.5938 49.6881 67.4291 49.3951 67.1361C49.102 66.8431 48.9374 66.4457 48.9374 66.0312C48.9374 65.6168 49.102 65.2194 49.3951 64.9264C49.6881 64.6334 50.0855 64.4688 50.4999 64.4688C50.9143 64.4688 51.3118 64.6334 51.6048 64.9264C51.8978 65.2194 52.0624 65.6168 52.0624 66.0312Z" fill="#0A192F"/>
</g>
<defs>
<clipPath id="clip0_101_7">
<rect width="25" height="25" fill="white" transform="translate(38 59)"/>
</clipPath>
</defs>
</svg>
