<svg width="100" height="100" viewBox="0 0 100 100" fill="none" xmlns="http://www.w3.org/2000/svg">
<g clip-path="url(#clip0_102_18)">
<path fill-rule="evenodd" clip-rule="evenodd" d="M11.7813 3.19372C12.8749 2.10178 14.188 1.25471 15.6337 0.708658C17.0795 0.162606 18.6247 -0.0699622 20.1671 0.0263641C21.7095 0.12269 23.2139 0.545712 24.5804 1.2674C25.947 1.98908 27.1445 2.99295 28.0938 4.21247L39.3125 18.625C41.3688 21.2687 42.0938 24.7125 41.2813 27.9625L37.8625 41.65C37.6858 42.3589 37.6953 43.1015 37.8902 43.8057C38.0852 44.5098 38.4589 45.1516 38.975 45.6687L54.3313 61.025C54.849 61.5422 55.4918 61.9165 56.1972 62.1114C56.9026 62.3064 57.6464 62.3154 58.3563 62.1375L72.0375 58.7187C73.6414 58.3177 75.3154 58.2866 76.933 58.6276C78.5507 58.9687 80.0696 59.6731 81.375 60.6875L95.7875 71.9C100.969 75.9312 101.444 83.5875 96.8063 88.2187L90.3438 94.6812C85.7188 99.3062 78.8063 101.337 72.3625 99.0687C55.8699 93.2658 40.8955 83.824 28.55 71.4437C16.1706 59.1001 6.72881 44.1278 0.925014 27.6375C-1.33749 21.2 0.693764 14.2812 5.31876 9.65622L11.7813 3.19372ZM99.0875 0.912471C99.3785 1.20276 99.6094 1.5476 99.767 1.92726C99.9245 2.30692 100.006 2.71393 100.006 3.12497C100.006 3.53602 99.9245 3.94302 99.767 4.32268C99.6094 4.70234 99.3785 5.04719 99.0875 5.33747L73.1688 31.25H90.625C91.4538 31.25 92.2487 31.5792 92.8347 32.1653C93.4208 32.7513 93.75 33.5462 93.75 34.375C93.75 35.2038 93.4208 35.9986 92.8347 36.5847C92.2487 37.1707 91.4538 37.5 90.625 37.5H65.625C64.7962 37.5 64.0014 37.1707 63.4153 36.5847C62.8293 35.9986 62.5 35.2038 62.5 34.375V9.37497C62.5 8.54617 62.8293 7.75131 63.4153 7.16526C64.0014 6.57921 64.7962 6.24997 65.625 6.24997C66.4538 6.24997 67.2487 6.57921 67.8347 7.16526C68.4208 7.75131 68.75 8.54617 68.75 9.37497V26.8312L94.6625 0.912471C94.9528 0.621451 95.2977 0.390558 95.6773 0.233018C96.057 0.0754773 96.464 -0.00561523 96.875 -0.00561523C97.2861 -0.00561523 97.6931 0.0754773 98.0727 0.233018C98.4524 0.390558 98.7972 0.621451 99.0875 0.912471Z" fill="white"/>
</g>
<defs>
<clipPath id="clip0_102_18">
<rect width="100" height="100" fill="white"/>
</clipPath>
</defs>
</svg>
