<svg width="100" height="100" viewBox="0 0 100 100" fill="none" xmlns="http://www.w3.org/2000/svg">
<g clip-path="url(#clip0_102_15)">
<path d="M51.3187 12.7938C50.9056 12.6015 50.4556 12.5019 49.9999 12.5019C49.5443 12.5019 49.0942 12.6015 48.6812 12.7938L1.8062 34.6688C1.25421 34.9264 0.78956 35.3398 0.46939 35.858C0.149219 36.3762 -0.0125103 36.9767 0.00409077 37.5857C0.0206919 38.1946 0.2149 38.7854 0.56283 39.2854C0.910761 39.7854 1.39724 40.1728 1.96245 40.4L48.8374 59.15C49.5836 59.4491 50.4163 59.4491 51.1624 59.15L87.4999 44.625V81.25C85.8423 81.25 84.2526 81.9085 83.0805 83.0806C81.9084 84.2527 81.2499 85.8424 81.2499 87.5V100H99.9999V87.5C99.9999 85.8424 99.3415 84.2527 98.1694 83.0806C96.9973 81.9085 95.4075 81.25 93.7499 81.25V42.1188L98.0374 40.4C98.6026 40.1728 99.0891 39.7854 99.4371 39.2854C99.785 38.7854 99.9792 38.1946 99.9958 37.5857C100.012 36.9767 99.8507 36.3762 99.5305 35.858C99.2103 35.3398 98.7457 34.9264 98.1937 34.6688L51.3187 12.7938Z" fill="white"/>
<path d="M26.1 56.45C25.6976 56.2984 25.2682 56.2315 24.8388 56.2535C24.4093 56.2754 23.989 56.3858 23.6042 56.5776C23.2194 56.7694 22.8783 57.0386 22.6022 57.3683C22.3262 57.6981 22.1212 58.0812 22 58.4938L18.875 69.1188C18.6561 69.8647 18.7231 70.6654 19.0628 71.3646C19.4026 72.0637 19.9908 72.6112 20.7125 72.9L48.8375 84.15C49.5836 84.449 50.4163 84.449 51.1625 84.15L79.2875 72.9C80.0092 72.6112 80.5974 72.0637 80.9371 71.3646C81.2769 70.6654 81.3439 69.8647 81.125 69.1188L78 58.4938C77.8788 58.0812 77.6738 57.6981 77.3978 57.3683C77.1217 57.0386 76.7806 56.7694 76.3958 56.5776C76.0109 56.3858 75.5906 56.2754 75.1612 56.2535C74.7317 56.2315 74.3024 56.2984 73.9 56.45L50 65.4125L26.1 56.45Z" fill="white"/>
</g>
<defs>
<clipPath id="clip0_102_15">
<rect width="100" height="100" fill="white"/>
</clipPath>
</defs>
</svg>
